<?xml version="1.0" encoding="UTF-8" standalone="no"?>
<svg
   width="351.24387"
   height="147.38817"
   viewBox="0 0 175.62193 73.694084"
   version="1.1"
   id="svg18"
   xmlns="http://www.w3.org/2000/svg"
   xmlns:svg="http://www.w3.org/2000/svg">
  <style>
    path, circle {
      stroke: #000000;
      stroke-linejoin: round;
      stroke-linecap: square;
    }
    [data-value="0"] #circle, [data-color="0"] {
      fill: #ff0000;
    }
    [data-value="1"] #circle, [data-color="1"] {
      fill: #00ff00;
    }
    [data-value="2"] #circle, [data-color="2"] {
      fill: #0000ff;
    }
    :is([data-value="true"], [data-value="false"]) #circle {
      fill: #ffff00;
    }
    svg:not([data-value]) * {
      visibility: hidden;
    }
    svg:not([data-value="false"]) #left,
    svg:not([data-value="true"]) #right {
      visibility: hidden;
    }
  </style>
  <path
     d="M 84.439912,73.194087 H 0.4999638 L 42.469939,0.49994904 Z"
     id="triangle"/>
  <circle
     cx="139.36084"
     cy="36.705025"
     r="35.454811"
     id="circle"/>
  <path
    class="text"
    d="m 138.44879,8.916549 c -1.21515,0 -2.39912,0.07968 -3.55004,0.240215 -0.57544,0.08029 -1.14222,0.18199 -1.7016,0.302515 -0.5594,0.120443 -1.11156,0.259799 -1.6549,0.42039 -0.54335,0.160592 -1.0787,0.342011 -1.60598,0.54275 -0.52728,0.20074 -1.0458,0.42196 -1.55702,0.662847 -0.51123,0.240887 -1.01517,0.50193 -1.51034,0.782965 -0.49516,0.281035 -0.98227,0.581899 -1.46138,0.903082 -0.4791,0.318513 -0.94488,0.653757 -1.39688,1.005387 -0.452,0.35163 -0.88967,0.718524 -1.31458,1.103271 -0.4249,0.384767 -0.83671,0.785491 -1.2345,1.203375 -0.39781,0.417864 -0.7815,0.852459 -1.1522,1.30346 -0.37071,0.450981 -0.72853,0.919427 -1.07213,1.403544 -0.3436,0.484118 -0.67332,0.984173 -0.98984,1.501428 -0.63299,1.034489 -1.21259,2.13615 -1.7372,3.303128 l -4.65552,-5.365097 2.05529,15.706019 12.58971,-9.635808 -7.0667,0.516052 c -0.0428,-0.0964 0.0355,-0.345903 0.23355,-0.747381 0.19809,-0.401479 0.5175,-0.954968 0.95646,-1.66157 0.44966,-0.717322 0.87661,-1.361073 1.28345,-1.928503 0.40684,-0.56743 0.79264,-1.059414 1.15664,-1.476951 0.5032,-0.578129 1.02418,-1.120125 1.56149,-1.625988 0.53731,-0.505863 1.09235,-0.976632 1.66379,-1.410229 0.57144,-0.433596 1.15834,-0.830917 1.7639,-1.192248 0.60558,-0.36133 1.22874,-0.685183 1.86844,-0.974247 0.6397,-0.289065 1.29694,-0.541711 1.97077,-0.758509 0.67381,-0.216799 1.36513,-0.398198 2.07308,-0.54273 0.70794,-0.144491 1.43109,-0.252483 2.17316,-0.324749 0.74208,-0.07235 1.50152,-0.109031 2.27772,-0.109031 0.71463,0 1.416,0.03057 2.10422,0.09334 0.6882,0.06297 1.36458,0.158961 2.02636,0.284703 0.66177,0.125742 1.30872,0.282869 1.94406,0.471564 0.63535,0.188715 1.25954,0.409039 1.86844,0.660626 0.60892,0.251606 1.20366,0.532988 1.78615,0.847465 0.58247,0.314499 1.15222,0.66138 1.70828,1.03877 0.55606,0.377389 1.09859,0.785308 1.62821,1.225609 0.52963,0.440282 1.04494,0.9137 1.54814,1.416893 0.50319,0.503193 0.97661,1.018859 1.41689,1.548138 0.4403,0.529279 0.84822,1.070602 1.22561,1.625987 0.37739,0.555385 0.72427,1.124588 1.03877,1.706059 0.3145,0.581492 0.59588,1.176352 0.84747,1.783909 0.25158,0.607578 0.47193,1.228096 0.66062,1.86178 0.18872,0.633663 0.34576,1.27984 0.47157,1.93961 0.12574,0.659769 0.22181,1.333825 0.2847,2.019701 0.063,0.685855 0.0933,1.383348 0.0933,2.09531 h 3.18081 c 0,-0.821686 -0.0365,-1.626579 -0.10903,-2.417838 -0.0726,-0.791259 -0.18179,-1.568069 -0.327,-2.32888 -0.1451,-0.760812 -0.32715,-1.507317 -0.54495,-2.237682 -0.21781,-0.730365 -0.47254,-1.444344 -0.76295,-2.144262 -0.29041,-0.699917 -0.61571,-1.385793 -0.97871,-2.055263 -0.363,-0.669471 -0.7633,-1.322841 -1.19891,-1.961864 -0.43562,-0.639024 -0.90647,-1.26209 -1.41467,-1.870666 -0.50821,-0.608576 -1.05408,-1.203559 -1.6349,-1.781687 -0.58079,-0.580819 -1.17743,-1.124466 -1.78835,-1.632672 -0.61092,-0.508207 -1.23631,-0.981279 -1.87733,-1.416893 -0.64104,-0.435614 -1.2974,-0.833689 -1.96855,-1.196691 -0.67114,-0.363002 -1.35624,-0.690523 -2.0575,-0.980932 -0.70124,-0.29041 -1.41734,-0.542913 -2.14871,-0.76071 -0.73136,-0.217817 -1.47841,-0.399767 -2.2399,-0.544971 -0.76146,-0.145307 -1.53727,-0.254379 -2.32888,-0.326971 -0.79158,-0.07255 -1.59837,-0.109031 -2.42006,-0.109031 z m -9.13532,19.30942 h 4.44864 v 29.499085 h 16.71587 v 3.954868 h -21.16451 z"
    id="left" />
  <path
    class="text"
    d="m 137.91285,9.158457 c -0.81903,0 -1.62194,0.03628 -2.41118,0.109031 -0.78925,0.07255 -1.56496,0.181786 -2.32443,0.326971 -0.75946,0.145307 -1.50353,0.327155 -2.23324,0.544972 -0.7297,0.217797 -1.44433,0.470299 -2.14425,0.760708 -0.69991,0.29041 -1.38513,0.617932 -2.05527,0.980933 -0.67015,0.363001 -1.32596,0.761077 -1.96631,1.196692 -0.64037,0.435613 -1.26454,0.908686 -1.87511,1.416893 -0.6106,0.508206 -1.20755,1.051853 -1.78837,1.632671 -0.58082,0.578129 -1.12445,1.173112 -1.63265,1.781688 -0.50823,0.608576 -0.97908,1.231642 -1.4147,1.870666 -0.43559,0.639021 -0.83588,1.292391 -1.19891,1.961864 -0.363,0.66947 -0.69052,1.355344 -0.98093,2.055263 -0.29039,0.699916 -0.54291,1.413896 -0.76071,2.144261 -0.21782,0.730365 -0.39976,1.47687 -0.54497,2.237682 -0.14531,0.760811 -0.25438,1.537621 -0.32697,2.328879 -0.0725,0.791261 -0.10903,1.596153 -0.10903,2.417838 h 3.18079 c 0,-0.711961 0.0306,-1.409452 0.0934,-2.09531 0.063,-0.685875 0.15673,-1.35993 0.2825,-2.019699 0.12575,-0.659769 0.28285,-1.305948 0.47155,-1.939611 0.18871,-0.633684 0.40904,-1.254202 0.66063,-1.861779 0.2516,-0.607557 0.5352,-1.202418 0.84971,-1.78391 0.31449,-0.581471 0.66136,-1.150674 1.03874,-1.706058 0.37741,-0.555386 0.78533,-1.096708 1.22561,-1.625988 0.4403,-0.52928 0.9115,-1.044945 1.4147,-1.548137 0.50316,-0.503193 1.01884,-0.976611 1.54812,-1.416894 0.52929,-0.4403 1.07284,-0.848219 1.6282,-1.225608 0.55539,-0.377392 1.12459,-0.724272 1.70609,-1.038771 0.58146,-0.314476 1.17411,-0.595859 1.78167,-0.847465 0.60758,-0.251586 1.23034,-0.471932 1.86399,-0.660625 0.63369,-0.188716 1.27986,-0.34576 1.93965,-0.471565 0.65974,-0.125741 1.33157,-0.221811 2.01743,-0.284702 0.6859,-0.06297 1.38561,-0.09334 2.09756,-0.09334 1.00103,0 1.97185,0.05747 2.91165,0.171189 0.93979,0.113719 1.84845,0.284092 2.72702,0.511589 0.87859,0.227519 1.7273,0.510674 2.54464,0.851928 0.81736,0.341258 1.60389,0.739456 2.36002,1.19447 0.75613,0.454995 1.48051,0.968238 2.17539,1.537011 0.6949,0.568755 1.35934,1.194815 1.99301,1.877329 0.63367,0.682512 1.23593,1.421397 1.80837,2.217669 0.57246,0.796274 1.11477,1.647937 1.62598,2.557968 l 0.86751,1.832861 c -0.23019,0.117795 -0.54918,0.193811 -0.9587,0.231328 -0.40951,0.03749 -0.91035,0.03607 -1.49918,-0.0061 -0.58885,-0.0428 -1.2671,-0.125947 -2.03528,-0.24912 -0.76816,-0.123093 -1.62604,-0.288168 -2.57355,-0.491577 l 12.55858,9.635808 2.08864,-15.706019 -4.65774,5.365096 c -0.5246,-1.166977 -1.10419,-2.268638 -1.73721,-3.303128 -0.3165,-0.517254 -0.64622,-1.017309 -0.98984,-1.501426 -0.3436,-0.484119 -0.69918,-0.952565 -1.06988,-1.403545 -0.37072,-0.451001 -0.75665,-0.885596 -1.15442,-1.303459 -0.39782,-0.417884 -0.80739,-0.818609 -1.2323,-1.203376 -0.42489,-0.384747 -0.86479,-0.751641 -1.31681,-1.103271 -0.45199,-0.351629 -0.91779,-0.686875 -1.39687,-1.005387 -0.4791,-0.321183 -0.96591,-0.622048 -1.46139,-0.903081 -0.49551,-0.281036 -0.99844,-0.542078 -1.51031,-0.782965 -0.51189,-0.240888 -1.0332,-0.462109 -1.56149,-0.662847 -0.52827,-0.20074 -1.06352,-0.38216 -1.60821,-0.542752 -0.54464,-0.16059 -1.09827,-0.299946 -1.65933,-0.420389 -0.56107,-0.120443 -1.13082,-0.22222 -1.7083,-0.302515 -0.57747,-0.0803 -1.16335,-0.140008 -1.75722,-0.180156 -0.59386,-0.04015 -1.1959,-0.06012 -1.80614,-0.06012 z m -9.42672,19.302736 v 33.453951 h 4.44865 V 48.615877 h 6.26819 l 11.18837,13.299267 h 5.77438 l -12.58085,-14.62498 c 0.53175,-0.205937 1.03574,-0.436206 1.51035,-0.691765 0.4746,-0.255562 0.9193,-0.537839 1.33683,-0.843025 0.41752,-0.305163 0.80734,-0.635029 1.16776,-0.989817 0.36042,-0.35479 0.69097,-0.734461 0.99429,-1.138854 0.30328,-0.408162 0.56879,-0.839965 0.79628,-1.296795 0.22751,-0.456829 0.41779,-0.938075 0.56945,-1.443591 0.15164,-0.505517 0.26449,-1.033978 0.34032,-1.588162 0.0758,-0.554203 0.11351,-1.13435 0.11351,-1.73722 0,-0.4456 -0.0213,-0.870475 -0.0647,-1.276762 -0.043,-0.406266 -0.1074,-0.794154 -0.19362,-1.161088 -0.086,-0.366975 -0.19338,-0.713348 -0.32251,-1.040991 -0.12919,-0.327641 -0.27928,-0.634784 -0.45154,-0.923096 -0.16852,-0.292079 -0.35386,-0.57179 -0.55606,-0.838578 -0.20218,-0.26679 -0.42252,-0.521433 -0.65842,-0.762951 -0.23592,-0.24152 -0.48901,-0.47124 -0.7585,-0.687324 -0.26947,-0.216064 -0.55528,-0.418496 -0.85858,-0.609452 -0.26962,-0.168539 -0.54752,-0.324729 -0.83413,-0.467121 -0.28663,-0.142454 -0.58199,-0.270947 -0.8853,-0.38703 -0.30328,-0.116164 -0.61436,-0.218999 -0.93421,-0.309179 -0.31982,-0.09028 -0.64835,-0.167724 -0.98537,-0.23133 -0.67402,-0.134913 -1.43299,-0.235117 -2.2755,-0.302513 -0.84251,-0.06744 -1.7694,-0.102306 -2.7804,-0.102306 z m 4.44865,3.821403 h 5.23609 c 0.59912,0 1.15888,0.0216 1.67937,0.06684 0.52047,0.04483 1.00174,0.112495 1.4436,0.202368 0.44186,0.08234 0.85256,0.197276 1.23449,0.347005 0.38195,0.14979 0.73453,0.33445 1.05654,0.551636 0.19485,0.127371 0.37417,0.262427 0.54052,0.404819 0.16631,0.142454 0.31969,0.292042 0.45822,0.449313 0.13858,0.157329 0.26319,0.321895 0.3737,0.493796 0.11044,0.172004 0.20678,0.351079 0.28915,0.538286 0.0861,0.183418 0.16179,0.374028 0.22687,0.571669 0.065,0.197683 0.11922,0.402334 0.16245,0.613915 0.0861,0.423123 0.129,0.875305 0.129,1.354613 0,0.629079 -0.0421,1.203375 -0.12452,1.723851 -0.0413,0.260248 -0.0939,0.507474 -0.1557,0.740716 -0.0619,0.233225 -0.13328,0.45245 -0.21576,0.658385 -0.0787,0.202165 -0.16856,0.398565 -0.26916,0.58946 -0.10069,0.190957 -0.21229,0.376351 -0.33587,0.556077 -0.12351,0.179749 -0.25876,0.354503 -0.40484,0.522718 -0.1461,0.168131 -0.30303,0.329864 -0.47156,0.487133 -0.1834,0.168541 -0.37739,0.32471 -0.58052,0.467101 -0.20318,0.142455 -0.41561,0.270969 -0.63839,0.38705 -0.22282,0.116165 -0.456,0.218978 -0.69846,0.309181 -0.24244,0.09028 -0.49414,0.167724 -0.75626,0.231326 -0.52423,0.119835 -1.09418,0.209219 -1.70827,0.269136 -0.61412,0.05993 -1.27347,0.08904 -1.97745,0.08904 h -4.49315 z"
    id="right" />
</svg>
