<?xml version="1.0" encoding="UTF-8" standalone="no"?>
<svg
   width="638"
   height="516"
   viewBox="0 0 319 258"
   version="1.1"
   xmlns="http://www.w3.org/2000/svg"
   xmlns:svg="http://www.w3.org/2000/svg">
  <style>
    .text {
      pointer-events: none;
    }
    path, circle, rect {
      stroke: #000000;
      stroke-linejoin: round;
      stroke-linecap: square;
    }
    [data-color] path {
      fill: #000000;
      stroke-width: 2.18325;
      stroke-dasharray: none;
      stroke-opacity: 1;
    }
    [data-color="0"] .center {
      fill: #ff0000;
    }
    [data-color="1"] .center {
      fill: #00ff00;
    }
    [data-color="2"] .center {
      fill: #0000ff;
    }
    .hidden {
      visibility: hidden;
    }
    .selected {
      filter: drop-shadow(0 0 5px #00ffff) drop-shadow(0 0 5px #00ffff);
    }
  </style>
  <defs>
    <g id="program-text">
      <path
        d="m 103.36854,53.979342 q 2.18128,-2.000767 3.30954,-3.459973 1.14329,-1.459206 1.69989,-2.752935 h 0.692 q 0.70704,1.489293 1.82025,2.888325 1.12825,1.399033 3.29449,3.339626 v 1.158339 q -3.02371,-1.414076 -4.6484,-2.963542 v 22.173912 h -1.51938 V 52.189182 q -1.44416,1.143295 -2.16624,1.594596 -0.70704,0.451301 -2.48215,1.338859 z"
        style="stroke-width:0.35206"
        aria-label="↑"
        class="text"
        id="path1" />
      <path
        style="stroke-width:0.258"
        aria-label="R"
        d="m 158.89667,50.445053 h -2.83325 l -5.49011,-6.526395 h -3.07578 v 6.526395 h -2.18282 V 34.029845 h 4.59714 q 1.48828,0 2.48047,0.198438 0.99219,0.187414 1.78594,0.683508 0.89297,0.56224 1.38907,1.422137 0.50711,0.848872 0.50711,2.160766 0,1.774915 -0.89297,2.976565 -0.89296,1.190626 -2.45842,1.796964 z m -5.10426,-11.796019 q 0,-0.705556 -0.25356,-1.245748 -0.24253,-0.551215 -0.8158,-0.926042 -0.47404,-0.319705 -1.12448,-0.440973 -0.65043,-0.132292 -1.53238,-0.132292 h -2.56866 v 6.195666 h 2.20486 q 1.03629,0 1.80799,-0.176389 0.7717,-0.187413 1.31189,-0.683507 0.4961,-0.463022 0.72761,-1.058335 0.24253,-0.606337 0.24253,-1.53238 z"
        class="text"
        id="path2" />
      <path
        d="M 71.505396,50.448139 H 61.12049 V 34.032932 h 2.182815 v 14.474927 h 8.202091 z"
        style="stroke-width:0.258"
        aria-label="L"
        class="text"
        id="path3" />
      <path
        d="m 138.27788,36.2201 q 0,-4.838367 3.41996,-8.242561 3.41995,-3.419954 8.24256,-3.419954 3.59331,0 6.41438,1.891219 2.82107,1.875459 4.36556,5.311172 l 2.28523,-2.631946 -1.02441,7.706716 -6.16222,-4.728046 q 2.78954,0.598886 3.46723,0.252162 l -0.42552,-0.898329 q -3.01019,-5.358452 -8.90449,-5.358452 -4.1922,0 -7.15511,2.962909 -2.96291,2.962909 -2.96291,7.15511 z"
        style="stroke-width:0.368833"
        aria-label="↷"
        class="text"
        id="path4" />
      <path
        d="m 77.280599,36.2201 h -1.560255 q 0,-4.192201 -2.962909,-7.15511 -2.962909,-2.962909 -7.170871,-2.962909 -4.570445,0 -7.533354,3.404193 -0.535845,0.614646 -1.197772,1.670577 -0.646166,1.04017 -0.583126,1.182011 l 3.467234,-0.252162 -6.17798,4.728046 -1.00865,-7.706716 2.285222,2.631946 q 1.544495,-3.435713 4.365563,-5.311172 2.821068,-1.891219 6.398623,-1.891219 4.838368,0 8.258322,3.419954 3.419953,3.404194 3.419953,8.242561 z"
        style="stroke-width:0.368833"
        aria-label="↶"
        class="text"
        id="path5" />
    </g>
  </defs>
  <g data-color="0" transform="translate(-23.461098,-14.980335)">
    <path
      class="left"
      d="m 57.393412,126.26334 -83.939951,0 41.969975,-72.694134 z"
      transform="matrix(1,0,0,-1,51.099181,142.3353)" />
    <path
      class="right"
      d="m 57.393412,126.26334 -83.939951,0 41.969975,-72.694134 z"
      transform="matrix(1,0,0,-1,135.7661,142.3353)" />
    <path
      class="center"
      d="m 57.393412,126.26334 -83.939951,0 41.969975,-72.694134 z"
      transform="translate(93.432539,-37.386949)" />
    <use href="#program-text"/>
  </g>
  <g data-color="1" transform="translate(-23.461098,77.019665)">
    <path
      class="left"
      d="m 57.393412,126.26334 -83.939951,0 41.969975,-72.694134 z"
      transform="matrix(1,0,0,-1,51.099181,142.3353)" />
    <path
      class="right"
      d="m 57.393412,126.26334 -83.939951,0 41.969975,-72.694134 z"
      transform="matrix(1,0,0,-1,135.7661,142.3353)" />
    <path
      class="center"
      d="m 57.393412,126.26334 -83.939951,0 41.969975,-72.694134 z"
      transform="translate(93.432539,-37.386949)" />
    <use href="#program-text"/>
  </g>
  <g data-color="2" transform="translate(-23.461098,169.01966)">
    <path
      class="left"
      d="m 57.393412,126.26334 -83.939951,0 41.969975,-72.694134 z"
      transform="matrix(1,0,0,-1,51.099181,142.3353)" />
    <path
      class="right"
      d="m 57.393412,126.26334 -83.939951,0 41.969975,-72.694134 z"
      transform="matrix(1,0,0,-1,135.7661,142.3353)" />
    <path
      class="center"
      d="m 57.393412,126.26334 -83.939951,0 41.969975,-72.694134 z"
      transform="translate(93.432539,-37.386949)" />
    <use href="#program-text"/>
  </g>
  <g id="menu" class="hidden" transform="translate(0,-34)">
    <rect
      style="fill:none;stroke-width:1.39017"
      width="107.70782"
      height="74.237617"
      x="189.15836"
      y="91.113274" />
    <circle
      id="btn-l"
      style="fill:#ffff00;stroke-width:0.558822"
      cx="224.45747"
      cy="144.77649"
      r="17.470074" />
    <circle
      id="btn-r"
      style="fill:#ffff00;stroke-width:0.558822"
      cx="261.76724"
      cy="144.72626"
      r="17.470074" />
    <path
      id="path20"
      style="stroke-width:0.368833"
      d="m 224.10223,131.15689 c -0.59626,0 -1.17722,0.0391 -1.74196,0.11787 -0.28236,0.0394 -0.56047,0.0893 -0.83495,0.14844 -0.27449,0.0591 -0.54543,0.12748 -0.81204,0.20628 -0.26661,0.0788 -0.5293,0.16782 -0.78803,0.26632 -0.25873,0.0985 -0.51316,0.20705 -0.76401,0.32525 -0.25085,0.1182 -0.49813,0.24629 -0.7411,0.38419 -0.24297,0.1379 -0.48199,0.28553 -0.71708,0.44313 -0.23509,0.15629 -0.46364,0.32079 -0.68543,0.49333 -0.22179,0.17254 -0.43655,0.35257 -0.64505,0.54136 -0.20849,0.1888 -0.41056,0.38543 -0.60575,0.59048 -0.1952,0.20504 -0.38347,0.41829 -0.56537,0.63959 -0.1819,0.22129 -0.35748,0.45115 -0.52608,0.6887 -0.1686,0.23755 -0.33039,0.48292 -0.4857,0.73673 -0.3106,0.50761 -0.595,1.04818 -0.85242,1.6208 l -2.2844,-2.63258 1.0085,7.70673 6.1776,-4.72816 -3.46753,0.25322 c -0.021,-0.0473 0.0174,-0.16973 0.1146,-0.36673 0.0972,-0.197 0.25393,-0.46859 0.46932,-0.81531 0.22064,-0.35198 0.43014,-0.66786 0.62977,-0.94629 0.19963,-0.27843 0.38894,-0.51984 0.56755,-0.72472 0.24691,-0.28368 0.50255,-0.54963 0.7662,-0.79785 0.26365,-0.24822 0.536,-0.47922 0.8164,-0.69198 0.2804,-0.21276 0.56838,-0.40772 0.86552,-0.58502 0.29715,-0.1773 0.60293,-0.33621 0.91682,-0.47805 0.31389,-0.14184 0.63639,-0.26581 0.96703,-0.37219 0.33063,-0.10638 0.66985,-0.19539 1.01723,-0.26631 0.34738,-0.0709 0.70222,-0.12389 1.06634,-0.15935 0.36413,-0.0355 0.73678,-0.0535 1.11765,-0.0535 0.35066,0 0.69481,0.015 1.03251,0.0458 0.33769,0.0309 0.66958,0.078 0.99431,0.1397 0.32472,0.0617 0.64217,0.1388 0.95392,0.23139 0.31176,0.0926 0.61804,0.20071 0.91682,0.32416 0.29879,0.12346 0.59062,0.26153 0.87644,0.41584 0.28581,0.15432 0.56538,0.32453 0.83823,0.50971 0.27285,0.18518 0.53906,0.38534 0.79894,0.60139 0.25988,0.21604 0.51274,0.44834 0.75965,0.69525 0.24691,0.24691 0.47921,0.49994 0.69525,0.75965 0.21605,0.25971 0.41621,0.52533 0.60139,0.79785 0.18518,0.27252 0.35539,0.55182 0.50971,0.83714 0.15432,0.28533 0.29239,0.57722 0.41584,0.87534 0.12345,0.29813 0.23157,0.60261 0.32416,0.91355 0.0926,0.31093 0.16966,0.628 0.23139,0.95174 0.0617,0.32374 0.10884,0.65449 0.1397,0.99104 0.0309,0.33654 0.0458,0.67879 0.0458,1.02814 h 1.56078 c 0,-0.40319 -0.0179,-0.79814 -0.0535,-1.1864 -0.0356,-0.38826 -0.0892,-0.76943 -0.16045,-1.14275 -0.0712,-0.37332 -0.16053,-0.73962 -0.2674,-1.098 -0.10688,-0.35838 -0.23187,-0.70872 -0.37437,-1.05216 -0.1425,-0.34344 -0.30212,-0.67999 -0.48024,-1.00849 -0.17812,-0.3285 -0.37454,-0.6491 -0.58829,-0.96266 -0.21375,-0.31356 -0.44479,-0.61929 -0.69416,-0.91791 -0.24937,-0.29862 -0.51722,-0.59057 -0.80222,-0.87425 -0.28499,-0.285 -0.57775,-0.55176 -0.87752,-0.80113 -0.29977,-0.24937 -0.60664,-0.4815 -0.92118,-0.69525 -0.31455,-0.21375 -0.63662,-0.40908 -0.96594,-0.5872 -0.32932,-0.17812 -0.66549,-0.33883 -1.00959,-0.48133 -0.34409,-0.1425 -0.69547,-0.2664 -1.05434,-0.37327 -0.35887,-0.10688 -0.72544,-0.19616 -1.09909,-0.26741 -0.37364,-0.0713 -0.75432,-0.12482 -1.14275,-0.16044 -0.38842,-0.0356 -0.7843,-0.0535 -1.18749,-0.0535 z m -4.48258,9.47487 h 2.18289 v 14.4748 h 8.20225 v 1.9406 h -10.38514 z" />
    <path
      id="path21"
      style="stroke-width:0.368833"
      d="m 261.14902,131.22536 c -0.40189,0 -0.79586,0.0178 -1.18314,0.0535 -0.38727,0.0356 -0.7679,0.0892 -1.14056,0.16044 -0.37266,0.0713 -0.73776,0.16053 -1.09582,0.26741 -0.35805,0.10687 -0.70871,0.23077 -1.05215,0.37327 -0.34344,0.1425 -0.67967,0.30321 -1.0085,0.48133 -0.32883,0.17812 -0.65063,0.37345 -0.96484,0.5872 -0.31422,0.21375 -0.62049,0.44588 -0.92009,0.69525 -0.29961,0.24937 -0.59253,0.51613 -0.87753,0.80113 -0.285,0.28368 -0.55175,0.57563 -0.80112,0.87425 -0.24938,0.29862 -0.48042,0.60435 -0.69417,0.91791 -0.21374,0.31356 -0.41016,0.63416 -0.58829,0.96266 -0.17812,0.3285 -0.33883,0.66505 -0.48133,1.00849 -0.14249,0.34344 -0.2664,0.69378 -0.37327,1.05216 -0.10688,0.35838 -0.19616,0.72468 -0.26741,1.098 -0.0713,0.37332 -0.12482,0.75449 -0.16044,1.14275 -0.0356,0.38826 -0.0535,0.78321 -0.0535,1.1864 h 1.56077 c 0,-0.34935 0.015,-0.6916 0.0458,-1.02814 0.0309,-0.33655 0.0769,-0.6673 0.13862,-0.99104 0.0617,-0.32374 0.13879,-0.64081 0.23138,-0.95174 0.0926,-0.31094 0.20071,-0.61542 0.32416,-0.91355 0.12346,-0.29812 0.26262,-0.59001 0.41694,-0.87534 0.15432,-0.28532 0.32452,-0.56462 0.5097,-0.83714 0.18519,-0.27252 0.38535,-0.53814 0.60139,-0.79785 0.21605,-0.25971 0.44726,-0.51274 0.69417,-0.75965 0.2469,-0.24691 0.49993,-0.47921 0.75964,-0.69525 0.25972,-0.21605 0.52643,-0.41621 0.79894,-0.60139 0.27252,-0.18518 0.55182,-0.35539 0.83715,-0.50971 0.28532,-0.15431 0.57612,-0.29238 0.87425,-0.41584 0.29813,-0.12345 0.6037,-0.23157 0.91463,-0.32416 0.31094,-0.0926 0.62801,-0.16966 0.95175,-0.23139 0.32374,-0.0617 0.6534,-0.10884 0.98994,-0.1397 0.33655,-0.0309 0.67989,-0.0458 1.02924,-0.0458 0.49119,0 0.96756,0.0282 1.4287,0.084 0.46115,0.0558 0.90702,0.1394 1.33812,0.25103 0.43111,0.11164 0.84756,0.25058 1.24862,0.41803 0.40106,0.16745 0.78701,0.36284 1.15803,0.58611 0.37102,0.22326 0.72646,0.4751 1.06744,0.75419 0.34097,0.27908 0.667,0.58628 0.97793,0.92118 0.31094,0.3349 0.60646,0.69746 0.88735,1.08818 0.28089,0.39072 0.547,0.80862 0.79785,1.25516 l 0.42567,0.89936 c -0.11295,0.0578 -0.26948,0.0951 -0.47042,0.11351 -0.20094,0.0184 -0.4467,0.0177 -0.73563,-0.003 -0.28894,-0.021 -0.62175,-0.0618 -0.99868,-0.12224 -0.37693,-0.0604 -0.79788,-0.1414 -1.26281,-0.24121 l 6.16233,4.72816 1.02487,-7.70673 -2.2855,2.63258 c -0.25741,-0.57262 -0.54181,-1.11319 -0.85242,-1.6208 -0.1553,-0.25381 -0.31709,-0.49918 -0.4857,-0.73673 -0.1686,-0.23755 -0.34308,-0.46741 -0.52498,-0.6887 -0.1819,-0.2213 -0.37127,-0.43455 -0.56646,-0.63959 -0.1952,-0.20505 -0.39617,-0.40168 -0.60467,-0.59048 -0.20849,-0.18879 -0.42434,-0.36882 -0.64614,-0.54136 -0.22179,-0.17254 -0.45034,-0.33704 -0.68543,-0.49333 -0.23508,-0.1576 -0.47395,-0.30523 -0.71708,-0.44313 -0.24313,-0.1379 -0.48992,-0.26599 -0.74109,-0.38419 -0.25118,-0.1182 -0.50698,-0.22675 -0.7662,-0.32525 -0.25922,-0.0985 -0.52185,-0.18752 -0.78912,-0.26632 -0.26726,-0.0788 -0.53891,-0.14718 -0.81422,-0.20628 -0.27531,-0.0591 -0.55488,-0.10904 -0.83823,-0.14844 -0.28336,-0.0394 -0.57085,-0.0687 -0.86225,-0.0884 -0.2914,-0.0197 -0.58681,-0.0295 -0.88625,-0.0295 z m -4.62557,9.47159 v 16.4154 h 2.1829 v -6.52577 h 3.07571 l 5.48999,6.52577 h 2.8334 l -6.17324,-7.17628 c 0.26091,-0.10105 0.50821,-0.21404 0.7411,-0.33944 0.23288,-0.1254 0.45109,-0.26391 0.65596,-0.41366 0.20487,-0.14974 0.39616,-0.3116 0.57301,-0.48569 0.17685,-0.17409 0.33905,-0.36039 0.48788,-0.55882 0.14882,-0.20028 0.27911,-0.41216 0.39073,-0.63632 0.11163,-0.22416 0.205,-0.4603 0.27942,-0.70835 0.0744,-0.24805 0.12978,-0.50736 0.16699,-0.77929 0.0372,-0.27194 0.0557,-0.55661 0.0557,-0.85243 0,-0.21865 -0.0104,-0.42713 -0.0317,-0.62649 -0.0211,-0.19935 -0.0527,-0.38968 -0.095,-0.56973 -0.0423,-0.18007 -0.0949,-0.35003 -0.15826,-0.5108 -0.0634,-0.16077 -0.13704,-0.31148 -0.22156,-0.45295 -0.0827,-0.14332 -0.17364,-0.28057 -0.27286,-0.41148 -0.0992,-0.13091 -0.20732,-0.25586 -0.32307,-0.37437 -0.11576,-0.11851 -0.23996,-0.23123 -0.37219,-0.33726 -0.13222,-0.10602 -0.27247,-0.20535 -0.4213,-0.29905 -0.13229,-0.0827 -0.26865,-0.15934 -0.40929,-0.22921 -0.14064,-0.0699 -0.28557,-0.13295 -0.4344,-0.18991 -0.14882,-0.057 -0.30147,-0.10746 -0.45841,-0.15171 -0.15693,-0.0443 -0.31814,-0.0823 -0.48351,-0.11351 -0.33073,-0.0662 -0.70314,-0.11537 -1.11655,-0.14844 -0.41341,-0.0331 -0.86822,-0.0502 -1.36431,-0.0502 z m 2.1829,1.87511 h 2.56927 c 0.29399,0 0.56865,0.0106 0.82405,0.0328 0.25539,0.022 0.49154,0.0552 0.70835,0.0993 0.21681,0.0404 0.41834,0.0968 0.60575,0.17027 0.18742,0.0735 0.36043,0.16411 0.51844,0.27068 0.0956,0.0625 0.18359,0.12877 0.26522,0.19864 0.0816,0.0699 0.15686,0.1433 0.22484,0.22047 0.068,0.0772 0.12915,0.15795 0.18337,0.2423 0.0542,0.0844 0.10146,0.17227 0.14188,0.26413 0.0423,0.09 0.0794,0.18353 0.11133,0.28051 0.0319,0.097 0.0585,0.19742 0.0797,0.30124 0.0423,0.20762 0.0633,0.4295 0.0633,0.66469 0,0.30868 -0.0207,0.59048 -0.0611,0.84587 -0.0202,0.1277 -0.046,0.24901 -0.0764,0.36346 -0.0304,0.11444 -0.0654,0.22201 -0.10587,0.32306 -0.0386,0.0992 -0.0827,0.19557 -0.13207,0.28924 -0.0494,0.0937 -0.10417,0.18467 -0.16481,0.27286 -0.0606,0.0882 -0.12696,0.17395 -0.19864,0.25649 -0.0717,0.0825 -0.1487,0.16186 -0.23139,0.23903 -0.09,0.0827 -0.18518,0.15933 -0.28486,0.2292 -0.0997,0.0699 -0.20393,0.13296 -0.31325,0.18992 -0.10933,0.057 -0.22375,0.10745 -0.34272,0.15171 -0.11896,0.0443 -0.24247,0.0823 -0.37109,0.11351 -0.25723,0.0588 -0.5369,0.10266 -0.83823,0.13206 -0.30133,0.0294 -0.62487,0.0437 -0.9703,0.0437 h -2.20473 z" />
    <circle
      style="fill:#ff0000;fill-opacity:1;stroke-width:0.667486;stroke-dasharray:none;stroke-opacity:1"
      data-btn-color="0"
      cx="207.39226"
      cy="108.76349"
      r="14.675803" />
    <circle
      style="fill:#00ff00;fill-opacity:1;stroke-width:0.667486;stroke-dasharray:none;stroke-opacity:1"
      data-btn-color="1"
      cx="243.15691"
      cy="108.76349"
      r="14.675803" />
    <circle
      style="fill:#0000ff;fill-opacity:1;stroke-width:0.667486;stroke-dasharray:none;stroke-opacity:1"
      data-btn-color="2"
      cx="278.92154"
      cy="108.76349"
      r="14.675803" /> 
    <g id="submit" class="hidden">
      <rect
        style="fill:#ffff00;fill-opacity:1;stroke:#000000;stroke-width:0.599866;stroke-linecap:square;stroke-linejoin:round"
        width="102.83855"
        height="28.999334"
        x="193.19588"
        y="193.18562"
        ry="14.499667" />
      <path
        d="m 214.37417,210.77218 q 0,1.08097 -0.50942,2.13708 -0.49699,1.05612 -1.40401,1.78919 -0.99399,0.79519 -2.32346,1.24249 -1.31704,0.4473 -3.18077,0.4473 -2.00041,0 -3.60322,-0.37275 -1.59039,-0.37275 -3.2429,-1.10582 v -3.08137 h 0.17395 q 1.40401,1.16794 3.24289,1.80161 1.83889,0.63367 3.45413,0.63367 2.28618,0 3.55352,-0.85732 1.27976,-0.85732 1.27976,-2.28618 0,-1.23007 -0.60882,-1.81404 -0.59639,-0.58397 -1.82646,-0.90701 -0.93186,-0.2485 -2.02526,-0.41003 -1.08096,-0.16152 -2.2986,-0.41002 -2.46013,-0.52184 -3.65292,-1.77676 -1.18037,-1.26734 -1.18037,-3.2926 0,-2.32346 1.96314,-3.80202 1.96313,-1.49099 4.98238,-1.49099 1.95071,0 3.57837,0.37275 1.62767,0.37275 2.88258,0.91944 v 2.90743 h -0.17395 q -1.05612,-0.89459 -2.78318,-1.47856 -1.71463,-0.5964 -3.51624,-0.5964 -1.97556,0 -3.18078,0.82005 -1.19279,0.82004 -1.19279,2.11223 0,1.15551 0.5964,1.81403 0.59639,0.65852 2.0998,1.00642 0.7952,0.17395 2.26134,0.42245 1.46614,0.2485 2.48498,0.50942 2.06253,0.54669 3.10622,1.65251 1.04369,1.10582 1.04369,3.0938 z m 15.27021,5.28058 h -2.33588 v -1.54068 q -1.18037,0.93186 -2.26133,1.42886 -1.08097,0.497 -2.38559,0.497 -2.18678,0 -3.40442,-1.32947 -1.21764,-1.34189 -1.21764,-3.92627 v -9.00805 h 2.33588 v 7.90224 q 0,1.05611 0.0994,1.81403 0.0994,0.7455 0.42245,1.27977 0.33547,0.54669 0.86974,0.79519 0.53427,0.2485 1.55311,0.2485 0.90702,0 1.97556,-0.47215 1.08097,-0.47214 2.01284,-1.20521 v -10.36237 h 2.33588 z m 16.81089,-7.04491 q 0,1.73948 -0.49699,3.13107 -0.48458,1.39159 -1.31704,2.33588 -0.88217,0.98157 -1.93829,1.47857 -1.05612,0.48457 -2.32346,0.48457 -1.18036,0 -2.06253,-0.28578 -0.88217,-0.27334 -1.73949,-0.74549 l -0.14909,0.64609 h -2.18679 v -19.33314 h 2.33588 v 6.90824 q 0.98157,-0.80762 2.08739,-1.31704 1.10581,-0.52184 2.48498,-0.52184 2.46013,0 3.87657,1.88858 1.42886,1.88859 1.42886,5.33029 z m -2.41043,0.0621 q 0,-2.48498 -0.82004,-3.76475 -0.82005,-1.29219 -2.64651,-1.29219 -1.01884,0 -2.06253,0.4473 -1.04369,0.43487 -1.93829,1.13067 v 7.95193 q 0.994,0.4473 1.70222,0.62125 0.72064,0.17395 1.62766,0.17395 1.93828,0 3.03167,-1.26734 1.10582,-1.27977 1.10582,-4.00082 z m 26.30352,6.98279 h -2.33588 v -7.90223 q 0,-0.8946 -0.087,-1.72706 -0.0745,-0.83247 -0.33547,-1.32947 -0.28577,-0.53427 -0.82004,-0.80762 -0.53427,-0.27335 -1.54069,-0.27335 -0.98157,0 -1.96314,0.497 -0.98156,0.48457 -1.96313,1.24249 0.0373,0.28577 0.0621,0.67095 0.0248,0.37274 0.0248,0.74549 v 8.8838 h -2.33588 v -7.90223 q 0,-0.91945 -0.087,-1.73949 -0.0745,-0.83247 -0.33547,-1.32946 -0.28578,-0.53427 -0.82005,-0.7952 -0.53427,-0.27335 -1.54069,-0.27335 -0.95671,0 -1.92586,0.47215 -0.95671,0.47215 -1.91343,1.20522 v 10.36236 h -2.33588 v -13.87861 h 2.33588 v 1.54069 q 1.09339,-0.90702 2.17436,-1.41644 1.09339,-0.50942 2.32345,-0.50942 1.41644,0 2.39801,0.59639 0.99399,0.5964 1.47856,1.65251 1.41644,-1.19279 2.58438,-1.71463 1.16794,-0.53427 2.49741,-0.53427 2.28618,0 3.36715,1.39159 1.09339,1.37916 1.09339,3.86414 z m 7.00764,-16.20207 h -2.63408 v -2.42285 h 2.63408 z m -0.1491,16.20207 h -2.33588 v -13.87861 h 2.33588 z m 11.82851,-0.12424 q -0.65852,0.17394 -1.44129,0.28577 -0.77035,0.11182 -1.37917,0.11182 -2.12465,0 -3.23047,-1.14309 -1.10582,-1.14309 -1.10582,-3.66534 v -7.3804 h -1.57796 v -1.96313 h 1.57796 v -3.98839 h 2.33589 v 3.98839 h 4.82086 v 1.96313 h -4.82086 v 6.32428 q 0,1.09339 0.0497,1.71464 0.0497,0.60882 0.34789,1.14309 0.27335,0.49699 0.7455,0.73307 0.48457,0.22364 1.46613,0.22364 0.57155,0 1.1928,-0.16152 0.62124,-0.17395 0.89459,-0.28577 h 0.12425 z"
        class="text"
        style="font-size:25.4462px;stroke:#000000;stroke-width:0.298198;stroke-linecap:square;stroke-linejoin:round"
        aria-label="Submit" />
    </g>
  </g>
</svg>
