<?xml version="1.0" encoding="UTF-8" standalone="no"?>
<!-- Created with Inkscape (http://www.inkscape.org/) -->

<svg
   width="210mm"
   height="100mm"
   viewBox="0 0 210 100"
   version="1.1"
   id="svg5"
   xmlns="http://www.w3.org/2000/svg"
   xmlns:svg="http://www.w3.org/2000/svg">
  <defs
     id="defs1" />
  <g
     id="g5">
    <path
       style="fill:none;stroke:#000000;stroke-width:2.18325;stroke-linecap:square;stroke-linejoin:round;stroke-dasharray:none;stroke-opacity:1"
       id="left"
       d="m 57.393412,126.26334 -83.939951,0 41.969975,-72.694134 z"
       transform="matrix(1,0,0,-1,51.099181,142.3353)" />
    <path
       style="fill:none;stroke:#000000;stroke-width:2.18325;stroke-linecap:square;stroke-linejoin:round;stroke-dasharray:none;stroke-opacity:1"
       id="right"
       d="m 57.393412,126.26334 -83.939951,0 41.969975,-72.694134 z"
       transform="matrix(1,0,0,-1,135.7661,142.3353)" />
    <path
       style="fill:none;stroke:#000000;stroke-width:2.18325;stroke-linecap:square;stroke-linejoin:round;stroke-dasharray:none;stroke-opacity:1"
       id="center"
       d="m 57.393412,126.26334 -83.939951,0 41.969975,-72.694134 z"
       transform="translate(93.432539,-37.386949)" />
    <path
       d="m 103.36854,53.979342 q 2.18128,-2.000767 3.30954,-3.459973 1.14329,-1.459206 1.69989,-2.752935 h 0.692 q 0.70704,1.489293 1.82025,2.888325 1.12825,1.399033 3.29449,3.339626 v 1.158339 q -3.02371,-1.414076 -4.6484,-2.963542 v 22.173912 h -1.51938 V 52.189182 q -1.44416,1.143295 -2.16624,1.594596 -0.70704,0.451301 -2.48215,1.338859 z"
       style="font-size:30.8088px;stroke:#000000;stroke-width:0.35206;stroke-linecap:square;stroke-linejoin:round"
       aria-label="↑"
       id="path1" />
    <path
       style="font-size:22.5778px;stroke:#000000;stroke-width:0.258;stroke-linecap:square;stroke-linejoin:round"
       aria-label="R"
       d="m 158.89667,50.445053 h -2.83325 l -5.49011,-6.526395 h -3.07578 v 6.526395 h -2.18282 V 34.029845 h 4.59714 q 1.48828,0 2.48047,0.198438 0.99219,0.187414 1.78594,0.683508 0.89297,0.56224 1.38907,1.422137 0.50711,0.848872 0.50711,2.160766 0,1.774915 -0.89297,2.976565 -0.89296,1.190626 -2.45842,1.796964 z m -5.10426,-11.796019 q 0,-0.705556 -0.25356,-1.245748 -0.24253,-0.551215 -0.8158,-0.926042 -0.47404,-0.319705 -1.12448,-0.440973 -0.65043,-0.132292 -1.53238,-0.132292 h -2.56866 v 6.195666 h 2.20486 q 1.03629,0 1.80799,-0.176389 0.7717,-0.187413 1.31189,-0.683507 0.4961,-0.463022 0.72761,-1.058335 0.24253,-0.606337 0.24253,-1.53238 z"
       id="path2" />
    <path
       d="M 71.505396,50.448139 H 61.12049 V 34.032932 h 2.182815 v 14.474927 h 8.202091 z"
       style="font-size:22.5778px;stroke:#000000;stroke-width:0.258;stroke-linecap:square;stroke-linejoin:round"
       aria-label="L"
       id="path3" />
    <path
       d="m 138.27788,36.2201 q 0,-4.838367 3.41996,-8.242561 3.41995,-3.419954 8.24256,-3.419954 3.59331,0 6.41438,1.891219 2.82107,1.875459 4.36556,5.311172 l 2.28523,-2.631946 -1.02441,7.706716 -6.16222,-4.728046 q 2.78954,0.598886 3.46723,0.252162 l -0.42552,-0.898329 q -3.01019,-5.358452 -8.90449,-5.358452 -4.1922,0 -7.15511,2.962909 -2.96291,2.962909 -2.96291,7.15511 z"
       style="font-size:32.2768px;stroke:#000000;stroke-width:0.368833;stroke-linecap:square;stroke-linejoin:round"
       aria-label="↷"
       id="path4" />
    <path
       d="m 77.280599,36.2201 h -1.560255 q 0,-4.192201 -2.962909,-7.15511 -2.962909,-2.962909 -7.170871,-2.962909 -4.570445,0 -7.533354,3.404193 -0.535845,0.614646 -1.197772,1.670577 -0.646166,1.04017 -0.583126,1.182011 l 3.467234,-0.252162 -6.17798,4.728046 -1.00865,-7.706716 2.285222,2.631946 q 1.544495,-3.435713 4.365563,-5.311172 2.821068,-1.891219 6.398623,-1.891219 4.838368,0 8.258322,3.419954 3.419953,3.404194 3.419953,8.242561 z"
       style="font-size:32.2768px;stroke:#000000;stroke-width:0.368833;stroke-linecap:square;stroke-linejoin:round"
       aria-label="↶"
       id="path5" />
  </g>
</svg>
